<svg id="visual" viewBox="0 0 1500 100" width="1500" height="100" xmlns="http://www.w3.org/2000/svg" xmlns:xlink="http://www.w3.org/1999/xlink" version="1.1"><rect x="0" y="0" width="1500" height="100" fill="#eee"></rect><path d="M0 48L13.8 49.5C27.7 51 55.3 54 83.2 58.5C111 63 139 69 166.8 65.5C194.7 62 222.3 49 250 45C277.7 41 305.3 46 333.2 48.2C361 50.3 389 49.7 416.8 52C444.7 54.3 472.3 59.7 500 55.7C527.7 51.7 555.3 38.3 583.2 36.8C611 35.3 639 45.7 666.8 48.5C694.7 51.3 722.3 46.7 750 41.7C777.7 36.7 805.3 31.3 833.2 34.7C861 38 889 50 916.8 55.3C944.7 60.7 972.3 59.3 1000 59.5C1027.7 59.7 1055.3 61.3 1083.2 55C1111 48.7 1139 34.3 1166.8 35.8C1194.7 37.3 1222.3 54.7 1250 64.3C1277.7 74 1305.3 76 1333.2 72.2C1361 68.3 1389 58.7 1416.8 56.7C1444.7 54.7 1472.3 60.3 1486.2 63.2L1500 66L1500 0L1486.2 0C1472.3 0 1444.7 0 1416.8 0C1389 0 1361 0 1333.2 0C1305.3 0 1277.7 0 1250 0C1222.3 0 1194.7 0 1166.8 0C1139 0 1111 0 1083.2 0C1055.3 0 1027.7 0 1000 0C972.3 0 944.7 0 916.8 0C889 0 861 0 833.2 0C805.3 0 777.7 0 750 0C722.3 0 694.7 0 666.8 0C639 0 611 0 583.2 0C555.3 0 527.7 0 500 0C472.3 0 444.7 0 416.8 0C389 0 361 0 333.2 0C305.3 0 277.7 0 250 0C222.3 0 194.7 0 166.8 0C139 0 111 0 83.2 0C55.3 0 27.7 0 13.8 0L0 0Z" fill="#000000" stroke-linecap="round" stroke-linejoin="miter"></path></svg>