<svg id="visual" viewBox="0 0 1500 50" width="1500" height="50" xmlns="http://www.w3.org/2000/svg" xmlns:xlink="http://www.w3.org/1999/xlink" version="1.1"><rect x="0" y="0" width="1500" height="50" fill="#fff"></rect><path d="M0 13L13.8 16.5C27.7 20 55.3 27 83.2 30.3C111 33.7 139 33.3 166.8 29.3C194.7 25.3 222.3 17.7 250 16.3C277.7 15 305.3 20 333.2 20C361 20 389 15 416.8 15.8C444.7 16.7 472.3 23.3 500 26.2C527.7 29 555.3 28 583.2 26.2C611 24.3 639 21.7 666.8 20.5C694.7 19.3 722.3 19.7 750 22.2C777.7 24.7 805.3 29.3 833.2 31.8C861 34.3 889 34.7 916.8 31.3C944.7 28 972.3 21 1000 18.7C1027.7 16.3 1055.3 18.7 1083.2 20C1111 21.3 1139 21.7 1166.8 21C1194.7 20.3 1222.3 18.7 1250 20.5C1277.7 22.3 1305.3 27.7 1333.2 30C1361 32.3 1389 31.7 1416.8 28.5C1444.7 25.3 1472.3 19.7 1486.2 16.8L1500 14L1500 51L1486.2 51C1472.3 51 1444.7 51 1416.8 51C1389 51 1361 51 1333.2 51C1305.3 51 1277.7 51 1250 51C1222.3 51 1194.7 51 1166.8 51C1139 51 1111 51 1083.2 51C1055.3 51 1027.7 51 1000 51C972.3 51 944.7 51 916.8 51C889 51 861 51 833.2 51C805.3 51 777.7 51 750 51C722.3 51 694.7 51 666.8 51C639 51 611 51 583.2 51C555.3 51 527.7 51 500 51C472.3 51 444.7 51 416.8 51C389 51 361 51 333.2 51C305.3 51 277.7 51 250 51C222.3 51 194.7 51 166.8 51C139 51 111 51 83.2 51C55.3 51 27.7 51 13.8 51L0 51Z" fill="#000000" stroke-linecap="round" stroke-linejoin="miter"></path></svg>